<svg version="1.1" id="Layer_1" xmlns="http://www.w3.org/2000/svg" xmlns:xlink="http://www.w3.org/1999/xlink" x="0px" y="0px"
	 width="100%" viewBox="0 0 262 192" enable-background="new 0 0 262 192" xml:space="preserve">
<path fill="#0865FE" opacity="1.000000" stroke="none" 
	d="
M164.000000,193.000000 
	C109.333344,193.000000 55.166687,193.000000 1.000022,193.000000 
	C1.000015,129.000015 1.000015,65.000046 1.000007,1.000048 
	C88.333290,1.000032 175.666580,1.000032 262.999908,1.000016 
	C262.999939,64.999954 262.999939,128.999908 262.999969,192.999939 
	C230.166672,193.000000 197.333328,193.000000 164.000000,193.000000 
M102.344788,79.887772 
	C88.276543,104.999435 107.516068,128.964706 123.479042,130.515671 
	C123.479042,123.116692 123.479042,115.711098 123.479042,108.253212 
	C121.139259,108.130661 119.191360,108.028633 117.122330,107.920258 
	C117.122330,104.390114 117.122330,101.167290 117.122330,97.935768 
	C119.410370,97.772842 121.365753,97.633606 123.589447,97.475266 
	C123.689049,95.767044 123.818413,94.317734 123.851166,92.866234 
	C124.142212,79.966927 131.837631,73.800896 144.535416,76.057892 
	C148.405945,76.745872 147.954636,79.366333 148.059402,82.037498 
	C148.160889,84.624123 147.434967,85.936363 144.490509,86.158447 
	C136.845993,86.735031 135.032990,89.573959 136.999023,97.921989 
	C140.243195,97.921989 143.630402,97.921989 147.389160,97.921989 
	C146.711136,101.603951 146.148682,104.658264 145.560120,107.854446 
	C142.348495,108.026375 139.440231,108.182068 136.363037,108.346802 
	C136.363037,116.329147 136.363037,123.928673 136.363037,131.543167 
	C156.801224,130.116501 171.295303,108.379784 165.287003,88.219994 
	C161.142593,74.314110 151.630127,65.768707 137.442688,63.524364 
	C122.768845,61.203072 111.108002,66.958893 102.344788,79.887772 
z"/>
<path fill="#FAFBFE" opacity="1.000000" stroke="none" 
	d="
M102.551987,79.587143 
	C111.108002,66.958893 122.768845,61.203072 137.442688,63.524364 
	C151.630127,65.768707 161.142593,74.314110 165.287003,88.219994 
	C171.295303,108.379784 156.801224,130.116501 136.363037,131.543167 
	C136.363037,123.928673 136.363037,116.329147 136.363037,108.346802 
	C139.440231,108.182068 142.348495,108.026375 145.560120,107.854446 
	C146.148682,104.658264 146.711136,101.603951 147.389160,97.921989 
	C143.630402,97.921989 140.243195,97.921989 136.999023,97.921989 
	C135.032990,89.573959 136.845993,86.735031 144.490509,86.158447 
	C147.434967,85.936363 148.160889,84.624123 148.059402,82.037498 
	C147.954636,79.366333 148.405945,76.745872 144.535416,76.057892 
	C131.837631,73.800896 124.142212,79.966927 123.851166,92.866234 
	C123.818413,94.317734 123.689049,95.767044 123.589447,97.475266 
	C121.365753,97.633606 119.410370,97.772842 117.122330,97.935768 
	C117.122330,101.167290 117.122330,104.390114 117.122330,107.920258 
	C119.191360,108.028633 121.139259,108.130661 123.479042,108.253212 
	C123.479042,115.711098 123.479042,123.116692 123.479042,130.515671 
	C107.516068,128.964706 88.276543,104.999435 102.551987,79.587143 
z"/>
</svg>