<?xml version="1.0" encoding="iso-8859-1"?>
<!-- Uploaded to: SVG Repo, www.svgrepo.com, Generator: SVG Repo Mixer Tools -->
<svg fill="#000000" height="800px" width="800px" version="1.1" id="Layer_1" xmlns="http://www.w3.org/2000/svg" xmlns:xlink="http://www.w3.org/1999/xlink" 
	 viewBox="0 0 512 512" xml:space="preserve">
<g>
	<g>
		<g>
			<polygon points="256,165.667 256,221.868 341.333,221.868 341.333,165.676 298.581,123 			"/>
			<path d="M292.437,104.908c0.794-0.802,1.724-1.34,2.705-1.758c0.119-0.051,0.23-0.094,0.35-0.137
				c0.99-0.375,2.014-0.623,3.063-0.614h0.009c0.017,0,0.034,0.008,0.051,0.008c0.708,0.009,1.408,0.102,2.091,0.282
				c0.29,0.068,0.555,0.213,0.845,0.307c0.145,0.051,0.282,0.085,0.418,0.145c1.084,0.401,2.108,0.947,2.918,1.766l62.054,62.216
				l13.517-13.517l-81.971-81.809l-81.621,81.792l13.525,13.534L292.437,104.908z"/>
			<path d="M34.133,25.6v460.8c0,14.114,11.486,25.6,25.6,25.6h59.733V0H59.733C45.619,0,34.133,11.486,34.133,25.6z"/>
			<path d="M452.267,0H136.533v512h315.733c14.114,0,25.6-11.486,25.6-25.6V25.6C477.867,11.486,466.381,0,452.267,0z
				 M198.758,147.576l93.679-93.867c1.604-1.613,3.772-2.509,6.033-2.509h0.009c2.261,0,4.429,0.896,6.033,2.492l94.054,93.867
				c1.596,1.596,2.5,3.772,2.5,6.033c0,2.27-0.896,4.446-2.5,6.042l-25.6,25.6c-1.596,1.604-3.772,2.5-6.033,2.5
				c-2.27,0-4.446-0.896-6.042-2.509l-2.492-2.5V230.4c0,4.719-3.823,8.533-8.533,8.533h-102.4c-4.71,0-8.533-3.814-8.533-8.533
				v-47.676l-2.492,2.5c-1.596,1.613-3.772,2.509-6.042,2.509c-2.261,0-4.437-0.896-6.033-2.5l-25.6-25.6
				C195.439,156.297,195.43,150.912,198.758,147.576z M366.933,315.733c0,4.719-3.823,8.533-8.533,8.533h-59.733
				c-4.71,0-8.533-3.814-8.533-8.533s3.823-8.533,8.533-8.533H358.4C363.11,307.2,366.933,311.014,366.933,315.733z M179.2,307.2
				h85.333c4.71,0,8.533,3.814,8.533,8.533s-3.823,8.533-8.533,8.533H179.2c-4.71,0-8.533-3.814-8.533-8.533
				S174.49,307.2,179.2,307.2z M179.2,358.4h42.667c4.71,0,8.533,3.814,8.533,8.533s-3.823,8.533-8.533,8.533H179.2
				c-4.71,0-8.533-3.814-8.533-8.533S174.49,358.4,179.2,358.4z M238.933,426.667H179.2c-4.71,0-8.533-3.814-8.533-8.533
				s3.823-8.533,8.533-8.533h59.733c4.71,0,8.533,3.814,8.533,8.533S243.644,426.667,238.933,426.667z M247.467,366.933
				c0-4.719,3.823-8.533,8.533-8.533h68.267c4.71,0,8.533,3.814,8.533,8.533s-3.823,8.533-8.533,8.533H256
				C251.29,375.467,247.467,371.652,247.467,366.933z M349.867,426.667h-76.8c-4.71,0-8.533-3.814-8.533-8.533
				s3.823-8.533,8.533-8.533h76.8c4.71,0,8.533,3.814,8.533,8.533S354.577,426.667,349.867,426.667z M418.133,426.667H384
				c-4.71,0-8.533-3.814-8.533-8.533S379.29,409.6,384,409.6h34.133c4.71,0,8.533,3.814,8.533,8.533
				S422.844,426.667,418.133,426.667z M418.133,375.467H358.4c-4.71,0-8.533-3.814-8.533-8.533s3.823-8.533,8.533-8.533h59.733
				c4.71,0,8.533,3.814,8.533,8.533S422.844,375.467,418.133,375.467z M418.133,324.267h-25.6c-4.71,0-8.533-3.814-8.533-8.533
				s3.823-8.533,8.533-8.533h25.6c4.71,0,8.533,3.814,8.533,8.533S422.844,324.267,418.133,324.267z"/>
		</g>
	</g>
</g>
</svg>