<?xml version="1.0" encoding="iso-8859-1"?>
<!-- Uploaded to: SVG Repo, www.svgrepo.com, Generator: SVG Repo Mixer Tools -->
<svg fill="#000000" version="1.1" id="Layer_1" xmlns="http://www.w3.org/2000/svg" xmlns:xlink="http://www.w3.org/1999/xlink" 
	 viewBox="0 0 512 512" xml:space="preserve">
<g>
	<g>
		<rect x="390.336" y="178.426" width="15.834" height="293.454"/>
	</g>
</g>
<g>
	<g>
		<polygon points="359.72,139.368 359.72,156.258 390.332,156.258 390.332,171.036 406.165,171.036 406.165,156.258 
			446.278,156.258 446.278,497.213 406.165,497.213 406.165,480.324 390.332,480.324 390.332,497.213 359.72,497.213 
			359.72,511.992 462.112,511.992 462.112,139.368 		"/>
	</g>
</g>
<g>
	<g>
		<path d="M311.842,0c-20.446,0-39.521,5.978-55.572,16.276C240.222,5.978,221.146,0,200.7,0C143.807,0,97.52,46.287,97.52,103.181
			v35.745H49.888V512h301.625V138.926h-47.632v-35.745c0-30.332-13.159-57.648-34.065-76.544
			c12.477-6.878,26.8-10.803,42.026-10.803c48.163,0,87.347,39.183,87.347,87.347v23.816h15.834v-23.816
			C415.023,46.287,368.736,0,311.842,0z M303.881,154.76h31.799v341.406H65.722V154.76H97.52v19.868h15.834V154.76h174.694v19.868
			h15.834V154.76z M288.048,103.181v35.745H113.353v-35.745c0-48.163,39.183-87.347,87.347-87.347
			c15.227,0,29.549,3.925,42.026,10.803c-20.907,18.896-34.065,46.212-34.065,76.544v23.816h15.834v-23.816
			c0-27.072,12.381-51.306,31.776-67.339C275.667,51.876,288.048,76.109,288.048,103.181z"/>
	</g>
</g>
<g>
	<g>
		<rect x="97.938" y="187.927" width="15.834" height="15.834"/>
	</g>
</g>
<g>
	<g>
		<rect x="287.944" y="187.927" width="15.834" height="15.834"/>
	</g>
</g>
<g>
	<g>
		<path d="M97.52,277.853v71.404h206.361v-71.404H97.52z M288.047,333.424H113.353v-39.737h174.694V333.424z"/>
	</g>
</g>
<g>
	<g>
		<rect x="113.771" y="362.099" width="70.724" height="15.834"/>
	</g>
</g>
<g>
	<g>
		<rect x="272.11" y="362.099" width="15.834" height="15.834"/>
	</g>
</g>
<g>
	<g>
		<rect x="247.831" y="362.099" width="16.889" height="15.834"/>
	</g>
</g>
<g>
	<g>
		<rect x="224.608" y="362.099" width="15.834" height="15.834"/>
	</g>
</g>
</svg>