<?xml version="1.0" encoding="UTF-8"?>
<svg version="1.1" xmlns="http://www.w3.org/2000/svg" width="80" height="80">
<path d="M0 0 C1.68222656 -0.05607422 1.68222656 -0.05607422 3.3984375 -0.11328125 C7.27124158 0.39777885 8.9022133 1.56421904 11.625 4.3125 C11.625 4.9725 11.625 5.6325 11.625 6.3125 C12.346875 6.18875 13.06875 6.065 13.8125 5.9375 C17.21957813 6.39177708 18.4784471 7.63120669 20.57983398 10.2890625 C22.71276065 14.41840055 22.21380116 18.96393179 22.0625 23.5 C22.05669922 24.49708984 22.05089844 25.49417969 22.04492188 26.52148438 C21.9210697 33.86839545 21.9210697 33.86839545 19.625 37.3125 C18.965 37.3125 18.305 37.3125 17.625 37.3125 C17.5425 38.199375 17.46 39.08625 17.375 40 C16.52297373 43.76311603 15.07699047 45.40076132 12.625 48.3125 C11.84666466 50.49464568 11.84666466 50.49464568 11.625 52.3125 C12.82125 52.395 14.0175 52.4775 15.25 52.5625 C22.06573815 53.45046589 26.17965527 57.42668228 30.3671875 62.58984375 C33.88066551 67.40178103 33.625 70.07867824 33.625 76.3125 C12.505 76.3125 -8.615 76.3125 -30.375 76.3125 C-30.375 68.71229557 -29.66431307 64.81469137 -24.50390625 59.3203125 C-20.19989877 55.39870266 -16.55142336 52.45367437 -10.5625 52.1875 C-9.840625 52.22875 -9.11875 52.27 -8.375 52.3125 C-9.45446538 49.25401475 -10.63668962 46.93535907 -12.5 44.25 C-14.375 41.3125 -14.375 41.3125 -14.375 37.3125 C-15.365 36.9825 -16.355 36.6525 -17.375 36.3125 C-19.28860426 32.48529148 -18.64683213 27.83548009 -18.6875 23.625 C-18.71650391 22.64337891 -18.74550781 21.66175781 -18.77539062 20.65039062 C-18.83097515 14.27527308 -18.14976776 10.49936154 -14.375 5.3125 C-9.71847269 0.9966942 -6.25800066 0.13604349 0 0 Z " fill="#BD9E4D" transform="translate(38.375,1.6875)"/>
<path d="M0 0 C1.625 2.375 1.625 2.375 3 5 C6.72579089 7.48386059 8.58711402 7.3804212 13 7 C16.0816964 5.63035715 17.57570471 4.70715882 19.3125 1.8125 C19.539375 1.214375 19.76625 0.61625 20 0 C27.66931154 0.52891804 32.02889854 2.64888751 37.25 8.4375 C41.64150667 13.85215874 42 16.72578171 42 24 C20.88 24 -0.24 24 -22 24 C-22 16.39979557 -21.28931307 12.50219137 -16.12890625 7.0078125 C-11.4704508 2.76324629 -6.66292444 -1.22738082 0 0 Z " fill="#C0E6FD" transform="translate(30,54)"/>
<path d="M0 0 C3.415661 1.41337697 5.15184594 2.78265012 7 6 C7.29475698 8.72216744 7.41981161 11.16140783 7.375 13.875 C7.38660156 14.56980469 7.39820312 15.26460937 7.41015625 15.98046875 C7.38333609 20.72763727 6.49082086 23.97406892 4 28 C1.28518453 30.50598351 -1.47059385 32.82353128 -5 34 C-10.00648504 33.78232674 -13.08254505 32.0469094 -17 29 C-20.7476733 24.73540624 -21.17465895 21.07523792 -21.25 15.5 C-21.27578125 14.3553125 -21.3015625 13.210625 -21.328125 12.03125 C-21 9 -21 9 -19.84765625 7.15234375 C-17.32305732 5.5778053 -15.13508467 5.39248118 -12.1875 5.0625 C-7.02655581 4.33058428 -3.98471668 3.32059723 0 0 Z " fill="#FDECA1" transform="translate(47,18)"/>
<path d="M0 0 C2.125 1.6875 2.125 1.6875 3.125 4.6875 C4.053125 4.790625 4.98125 4.89375 5.9375 5 C9.1927766 5.70211848 10.20873387 6.06524108 12.125 8.6875 C13.5950271 13.0975813 14.03536877 17.65938116 12.11328125 21.94140625 C11.78714844 22.51761719 11.46101563 23.09382813 11.125 23.6875 C10.95484375 23.08421875 10.7846875 22.4809375 10.609375 21.859375 C9.18951752 17.17686628 8.09281594 13.83438851 4.125 10.6875 C1.01211043 12.18629868 -1.92037409 13.89917379 -4.875 15.6875 C-7.14553914 16.82276957 -8.72875736 16.88659935 -11.25 17.0625 C-14.95868453 17.44348846 -17.20580878 17.91154113 -19.875 20.6875 C-20.535 21.6775 -21.195 22.6675 -21.875 23.6875 C-23.81295159 17.87364524 -23.89555692 11.76641224 -21.1875 6.25 C-15.31085761 -0.26195509 -8.735327 -3.98786667 0 0 Z " fill="#FCC199" transform="translate(44.875,5.3125)"/>
<path d="M0 0 C1.68222656 -0.05607422 1.68222656 -0.05607422 3.3984375 -0.11328125 C7.27124158 0.39777885 8.9022133 1.56421904 11.625 4.3125 C11.625 4.9725 11.625 5.6325 11.625 6.3125 C12.346875 6.18875 13.06875 6.065 13.8125 5.9375 C16.625 6.3125 16.625 6.3125 19.4375 8.5 C23.09870882 13.38933583 22.40093486 19.54448865 21.625 25.3125 C20.59865888 28.5192654 19.31024023 31.40094657 17.625 34.3125 C16.965 34.3125 16.305 34.3125 15.625 34.3125 C15.59921875 33.50425781 15.5734375 32.69601563 15.546875 31.86328125 C15.2697776 23.73035022 15.2697776 23.73035022 10.625 17.3125 C10.109375 17.580625 9.59375 17.84875 9.0625 18.125 C8.258125 18.516875 7.45375 18.90875 6.625 19.3125 C5.573125 19.828125 4.52125 20.34375 3.4375 20.875 C-0.15672432 22.43094126 -3.56998164 22.78312718 -7.45703125 23.00390625 C-9.6114769 23.15844224 -9.6114769 23.15844224 -11.375 25.3125 C-11.83506346 27.51500992 -11.83506346 27.51500992 -12 29.9375 C-12.07476563 30.75476563 -12.14953125 31.57203125 -12.2265625 32.4140625 C-12.30003906 33.35378906 -12.30003906 33.35378906 -12.375 34.3125 C-13.035 34.3125 -13.695 34.3125 -14.375 34.3125 C-18.93173377 27.19260348 -19.3571775 20.65604827 -18.375 12.3125 C-16.81569819 7.36776218 -13.65201645 4.1638443 -9.375 1.3125 C-6.08407406 0.21552469 -3.46387841 0.0753017 0 0 Z M-13.25 8.375 C-16.05924878 12.25837331 -16.53105971 14.01509215 -16.5625 18.75 C-16.57667969 19.71808594 -16.59085938 20.68617187 -16.60546875 21.68359375 C-16.56649451 24.54516727 -16.56649451 24.54516727 -14.375 27.3125 C-13.92125 26.508125 -13.4675 25.70375 -13 24.875 C-11.375 22.3125 -11.375 22.3125 -9.375 21.3125 C-7.96105156 21.15979357 -6.54355652 21.03882547 -5.125 20.9375 C0.45228056 20.3636319 4.90054015 18.65770316 8.625 14.3125 C12.85163314 15.82201183 14.45578032 18.4976654 16.625 22.3125 C17.375 25.1875 17.375 25.1875 17.625 27.3125 C20.12955205 23.55567192 20.04015928 19.66302326 19.625 15.3125 C18.81692816 12.21489128 18.37435203 10.83704642 15.75 9 C13.36294466 8.10728648 13.36294466 8.10728648 9.625 8.3125 C9.3775 7.69375 9.13 7.075 8.875 6.4375 C7.33677504 3.82251756 6.50149576 3.24541754 3.625 2.3125 C-3.17501011 1.67098961 -8.73957394 3.07395328 -13.25 8.375 Z " fill="#A46D4D" transform="translate(38.375,1.6875)"/>
<path d="M0 0 C0 0.66 0 1.32 0 2 C-0.66386719 2.23074219 -1.32773437 2.46148437 -2.01171875 2.69921875 C-10.6105399 5.87513371 -14.87160746 9.89065752 -19 18 C-19.33 19.32 -19.66 20.64 -20 22 C-0.2 22 19.6 22 40 22 C35.96301823 11.90754557 34.09692768 8.17830808 24.8671875 3.796875 C23.27656195 3.11803062 21.64067894 2.54689298 20 2 C20 1.34 20 0.68 20 0 C27.66931154 0.52891804 32.02889854 2.64888751 37.25 8.4375 C41.64150667 13.85215874 42 16.72578171 42 24 C20.88 24 -0.24 24 -22 24 C-22 16.39979557 -21.28931307 12.50219137 -16.12890625 7.0078125 C-11.07539315 2.40328828 -7.04052262 -0.40231558 0 0 Z " fill="#7597C5" transform="translate(30,54)"/>
<path d="M0 0 C1.0209375 0.5259375 1.0209375 0.5259375 2.0625 1.0625 C6.81421925 2.57900614 11.29134972 1.31842208 16 0 C16.48 5.4 16.48 5.4 14.5 7.875 C10.94862094 9.47312058 7.82905595 9.70617835 4 9 C1.5 7.3125 1.5 7.3125 0 5 C-0.25 2.25 -0.25 2.25 0 0 Z " fill="#E5D178" transform="translate(32,51)"/>
<path d="M0 0 C3.7952131 1.49097658 5.61042731 3.75700849 8 7 C7.34 7.66 6.68 8.32 6 9 C4.68 7.35 3.36 5.7 2 4 C1.484375 4.268125 0.96875 4.53625 0.4375 4.8125 C-0.366875 5.204375 -1.17125 5.59625 -2 6 C-3.051875 6.515625 -4.10375 7.03125 -5.1875 7.5625 C-8.75359799 9.1029311 -12.12832264 9.46894169 -15.984375 9.69140625 C-18.31123002 9.90242656 -18.31123002 9.90242656 -21 12 C-21 11.01 -21 10.02 -21 9 C-17.96682761 6.97788507 -17.12800667 6.75859105 -13.6875 6.5625 C-8.11855171 6.04635357 -3.71313969 4.3319963 0 0 Z " fill="#AD7855" transform="translate(47,15)"/>
</svg>
